<svg width="32" height="32" viewBox="0 0 32 32" fill="none" xmlns="http://www.w3.org/2000/svg">
<path d="M0 6C0 2.68629 2.68629 0 6 0L26 0C29.3137 0 32 2.68629 32 6V26C32 29.3137 29.3137 32 26 32H6C2.68629 32 0 29.3137 0 26L0 6Z" fill="black"/>
<path d="M25.2 5.1001C25.7523 5.1001 26.2 5.54781 26.2 6.1001V26.5001C26.2 27.0524 25.7523 27.5001 25.2 27.5001H22.4168C22.1175 27.5001 21.8339 27.366 21.644 27.1347L12.5488 16.059C11.953 15.3334 10.776 15.7547 10.776 16.6936V26.5001C10.776 27.0524 10.3283 27.5001 9.77601 27.5001H6.65601C6.10372 27.5001 5.65601 27.0524 5.65601 26.5001V6.1001C5.65601 5.54781 6.10372 5.1001 6.65601 5.1001H9.47036C9.77016 5.1001 10.0541 5.2346 10.2441 5.46656L19.3063 16.5339C19.9016 17.2609 21.08 16.84 21.08 15.9004V6.1001C21.08 5.54781 21.5277 5.1001 22.08 5.1001H25.2Z" fill="white"/>
</svg>
